<svg width="215" height="47" viewBox="0 0 215 47" fill="none" xmlns="http://www.w3.org/2000/svg">
<path d="M12.2173 25H8.25244C8.1613 25 8.11572 24.943 8.11572 24.8291L8.18408 0.783691C8.18408 0.692546 8.22965 0.646973 8.3208 0.646973H15.396C16.6606 0.646973 17.8228 0.95459 18.8823 1.56982C19.9419 2.18506 20.785 3.01107 21.4116 4.04785C22.0496 5.08464 22.3687 6.25814 22.3687 7.56836C22.3687 8.42285 22.2376 9.19759 21.9756 9.89258C21.7135 10.5876 21.4059 11.1743 21.0527 11.6528C20.7109 12.1313 20.3976 12.4845 20.1128 12.7124C21.3774 14.1138 22.0098 15.7601 22.0098 17.6514L22.0439 24.8291C22.0439 24.943 21.987 25 21.873 25H17.9082C17.8171 25 17.7715 24.9658 17.7715 24.8975V17.6514C17.7715 16.8083 17.4753 16.0791 16.8828 15.4639C16.2904 14.8486 15.5612 14.541 14.6953 14.541H12.3882L12.354 24.8291C12.354 24.943 12.3084 25 12.2173 25ZM15.396 4.83398H12.3882V10.3369H15.396C16.1138 10.3369 16.7518 10.0692 17.3101 9.53369C17.8797 8.99821 18.1646 8.3431 18.1646 7.56836C18.1646 6.8278 17.8911 6.18978 17.3442 5.6543C16.7974 5.10742 16.1479 4.83398 15.396 4.83398ZM38.4434 25.3418C37.2129 25.3418 36.0736 25.0228 35.0254 24.3848C33.9772 23.7467 33.1398 22.8923 32.5132 21.8213C31.8979 20.7389 31.5903 19.5597 31.5903 18.2837L31.6587 0.783691C31.6587 0.692546 31.7043 0.646973 31.7954 0.646973H35.7261C35.8172 0.646973 35.8628 0.692546 35.8628 0.783691V18.2837C35.8628 19.0698 36.1134 19.742 36.6147 20.3003C37.116 20.8472 37.7256 21.1206 38.4434 21.1206C39.1953 21.1206 39.8219 20.8472 40.3232 20.3003C40.8245 19.742 41.0752 19.0698 41.0752 18.2837V0.783691C41.0752 0.692546 41.1208 0.646973 41.2119 0.646973H45.1426C45.2337 0.646973 45.2793 0.692546 45.2793 0.783691L45.3477 18.2837C45.3477 19.5711 45.04 20.756 44.4248 21.8384C43.7982 22.9093 42.9665 23.7638 41.9297 24.4019C40.8929 25.0285 39.7308 25.3418 38.4434 25.3418ZM61.5078 25H55.2358C55.1447 25 55.0991 24.943 55.0991 24.8291L55.1675 0.783691C55.1675 0.692546 55.2131 0.646973 55.3042 0.646973H62.0376C63.3478 0.646973 64.5384 0.965983 65.6094 1.604C66.6576 2.24202 67.4836 3.09082 68.0874 4.15039C68.6912 5.19857 68.9932 6.33789 68.9932 7.56836C68.9932 8.57096 68.7653 9.50521 68.3096 10.3711C67.8538 11.237 67.3127 11.9377 66.686 12.4731C67.3582 13.1453 67.8823 13.9258 68.2583 14.8145C68.6343 15.7031 68.8223 16.6374 68.8223 17.6172C68.8223 18.973 68.4976 20.2091 67.8481 21.3257C67.1873 22.4422 66.3044 23.3366 65.1992 24.0088C64.0941 24.6696 62.8636 25 61.5078 25ZM62.0376 4.7998H59.3716V10.3027H62.0376C62.8465 10.3027 63.5016 10.0179 64.0029 9.44824C64.5042 8.86719 64.7549 8.24056 64.7549 7.56836C64.7549 6.8278 64.4871 6.18408 63.9517 5.63721C63.4162 5.07894 62.7782 4.7998 62.0376 4.7998ZM61.5078 14.541H59.3716L59.3374 20.7275H61.5078C62.3509 20.7275 63.0744 20.4199 63.6782 19.8047C64.2821 19.1895 64.584 18.4603 64.584 17.6172C64.584 16.7741 64.2821 16.0506 63.6782 15.4468C63.0744 14.8429 62.3509 14.541 61.5078 14.541ZM89.7847 25H78.4712C78.38 25 78.3345 24.943 78.3345 24.8291L78.3687 0.783691C78.3687 0.692546 78.4142 0.646973 78.5054 0.646973H89.7505C89.8416 0.646973 89.8872 0.703939 89.8872 0.817871V4.73145C89.8872 4.82259 89.8416 4.86816 89.7505 4.86816H82.5728V10.3369H89.7505C89.8416 10.3369 89.8872 10.3825 89.8872 10.4736L89.9214 14.4385C89.9214 14.5296 89.8758 14.5752 89.7847 14.5752H82.5728V20.6934H89.7847C89.8758 20.6934 89.9214 20.7503 89.9214 20.8643V24.8633C89.9214 24.9544 89.8758 25 89.7847 25ZM107.5 25H103.552C103.45 25 103.398 24.943 103.398 24.8291V4.86816H98.8525C98.7386 4.86816 98.6816 4.8112 98.6816 4.69727L98.7158 0.783691C98.7158 0.692546 98.7614 0.646973 98.8525 0.646973H112.148C112.274 0.646973 112.336 0.692546 112.336 0.783691V4.69727C112.336 4.8112 112.291 4.86816 112.2 4.86816H107.603L107.637 24.8291C107.637 24.943 107.591 25 107.5 25ZM125.181 25H121.216C121.102 25 121.045 24.943 121.045 24.8291L121.08 0.783691C121.08 0.692546 121.125 0.646973 121.216 0.646973H125.147C125.238 0.646973 125.284 0.692546 125.284 0.783691L125.318 24.8291C125.318 24.943 125.272 25 125.181 25ZM141.837 25.3418C140.572 25.3418 139.416 25.0228 138.368 24.3848C137.331 23.7467 136.505 22.8923 135.89 21.8213C135.286 20.7389 134.984 19.5369 134.984 18.2153L135.018 7.29492C135.018 5.99609 135.314 4.82259 135.907 3.77441C136.499 2.71484 137.314 1.86605 138.351 1.22803C139.399 0.578613 140.561 0.253906 141.837 0.253906C143.136 0.253906 144.292 0.56722 145.306 1.19385C146.332 1.82048 147.146 2.66927 147.75 3.74023C148.365 4.7998 148.673 5.9847 148.673 7.29492V8.90137C148.673 8.99251 148.627 9.03809 148.536 9.03809H144.605C144.514 9.03809 144.469 8.99251 144.469 8.90137V7.29492C144.469 6.52018 144.218 5.85368 143.717 5.29541C143.215 4.73714 142.589 4.45801 141.837 4.45801C141.005 4.45801 140.367 4.74284 139.923 5.3125C139.479 5.88216 139.256 6.54297 139.256 7.29492V18.2153C139.256 19.0698 139.507 19.7705 140.008 20.3174C140.51 20.8529 141.119 21.1206 141.837 21.1206C142.589 21.1206 143.215 20.8244 143.717 20.2319C144.218 19.6281 144.469 18.9559 144.469 18.2153V16.5918C144.469 16.5007 144.514 16.4551 144.605 16.4551H148.57C148.661 16.4551 148.707 16.5007 148.707 16.5918V18.2153C148.707 19.5256 148.399 20.7218 147.784 21.8042C147.158 22.8752 146.332 23.7354 145.306 24.3848C144.281 25.0228 143.124 25.3418 141.837 25.3418ZM162.355 25H158.39C158.299 25 158.253 24.943 158.253 24.8291L158.322 0.817871C158.322 0.703939 158.367 0.646973 158.458 0.646973H162.389C162.48 0.646973 162.526 0.703939 162.526 0.817871V9.10645L168.012 0.783691C168.103 0.692546 168.188 0.646973 168.268 0.646973H172.284C172.387 0.646973 172.41 0.692546 172.353 0.783691L166.303 10.4395L173.087 24.8633C173.144 24.9544 173.087 25 172.917 25H168.644C168.53 25 168.462 24.9544 168.439 24.8633L163.705 14.5752L162.492 16.4893V24.8291C162.492 24.943 162.446 25 162.355 25ZM192.392 25H181.079C180.987 25 180.942 24.943 180.942 24.8291L180.976 0.783691C180.976 0.692546 181.022 0.646973 181.113 0.646973H192.358C192.449 0.646973 192.495 0.703939 192.495 0.817871V4.73145C192.495 4.82259 192.449 4.86816 192.358 4.86816H185.18V10.3369H192.358C192.449 10.3369 192.495 10.3825 192.495 10.4736L192.529 14.4385C192.529 14.5296 192.483 14.5752 192.392 14.5752H185.18V20.6934H192.392C192.483 20.6934 192.529 20.7503 192.529 20.8643V24.8633C192.529 24.9544 192.483 25 192.392 25ZM210.107 25H206.16C206.057 25 206.006 24.943 206.006 24.8291V4.86816H201.46C201.346 4.86816 201.289 4.8112 201.289 4.69727L201.323 0.783691C201.323 0.692546 201.369 0.646973 201.46 0.646973H214.756C214.881 0.646973 214.944 0.692546 214.944 0.783691V4.69727C214.944 4.8112 214.898 4.86816 214.807 4.86816H210.21L210.244 24.8291C210.244 24.943 210.199 25 210.107 25Z" fill="white"/>
<path d="M1.59347 46.46L2.96147 43.28L3.17747 42.944L5.18147 37.88H6.16547L2.61347 46.46H1.59347ZM3.06947 44.06L0.321469 37.88H1.37747L3.74147 43.412L3.06947 44.06ZM9.73838 44.12C9.13838 44.12 8.61038 43.98 8.15438 43.7C7.69838 43.42 7.34238 43.04 7.08638 42.56C6.83838 42.072 6.71438 41.524 6.71438 40.916C6.71438 40.3 6.84238 39.756 7.09838 39.284C7.35438 38.812 7.70638 38.44 8.15438 38.168C8.61038 37.896 9.13838 37.76 9.73838 37.76C10.3464 37.76 10.8744 37.896 11.3224 38.168C11.7784 38.44 12.1304 38.812 12.3784 39.284C12.6344 39.756 12.7624 40.3 12.7624 40.916C12.7624 41.524 12.6344 42.072 12.3784 42.56C12.1304 43.04 11.7784 43.42 11.3224 43.7C10.8744 43.98 10.3464 44.12 9.73838 44.12ZM9.73838 43.304C10.1544 43.304 10.5144 43.204 10.8184 43.004C11.1224 42.796 11.3584 42.512 11.5264 42.152C11.6944 41.792 11.7784 41.376 11.7784 40.904C11.7784 40.2 11.5904 39.636 11.2144 39.212C10.8464 38.788 10.3544 38.576 9.73838 38.576C9.13038 38.576 8.63838 38.788 8.26238 39.212C7.88638 39.636 7.69838 40.2 7.69838 40.904C7.69838 41.376 7.78238 41.792 7.95038 42.152C8.11838 42.512 8.35438 42.796 8.65838 43.004C8.97038 43.204 9.33038 43.304 9.73838 43.304ZM16.1942 44.12C15.7942 44.12 15.4382 44.04 15.1262 43.88C14.8142 43.712 14.5702 43.48 14.3942 43.184C14.2182 42.88 14.1302 42.532 14.1302 42.14V37.88H15.0902V41.888C15.0902 42.352 15.2022 42.7 15.4262 42.932C15.6582 43.164 15.9862 43.28 16.4102 43.28C16.7942 43.28 17.1342 43.192 17.4302 43.016C17.7262 42.84 17.9582 42.596 18.1262 42.284C18.3022 41.964 18.3902 41.6 18.3902 41.192L18.5462 42.644C18.3462 43.1 18.0342 43.46 17.6102 43.724C17.1862 43.988 16.7142 44.12 16.1942 44.12ZM18.4502 44V42.56H18.3902V37.88H19.3502V44H18.4502ZM21.2686 44V37.88H22.1686V39.44H22.2286V44H21.2686ZM22.2286 40.808L22.0726 39.356C22.2166 38.836 22.4726 38.44 22.8406 38.168C23.2086 37.896 23.6326 37.76 24.1126 37.76C24.3126 37.76 24.4486 37.776 24.5206 37.808V38.732C24.4806 38.716 24.4246 38.708 24.3526 38.708C24.2806 38.7 24.1926 38.696 24.0886 38.696C23.4806 38.696 23.0166 38.88 22.6966 39.248C22.3846 39.608 22.2286 40.128 22.2286 40.808ZM30.6189 44.108C29.9389 44.108 29.4429 43.956 29.1309 43.652C28.8269 43.34 28.6749 42.892 28.6749 42.308V36.452L29.6349 36.092V42.296C29.6349 42.64 29.7229 42.892 29.8989 43.052C30.0749 43.212 30.3629 43.292 30.7629 43.292C30.9229 43.292 31.0589 43.284 31.1709 43.268C31.2909 43.244 31.3869 43.216 31.4589 43.184V44C31.3789 44.032 31.2629 44.056 31.1109 44.072C30.9669 44.096 30.8029 44.108 30.6189 44.108ZM27.4149 38.696V37.88H31.4589V38.696H27.4149ZM32.6944 44V37.88H33.6544V44H32.6944ZM32.6224 36.488V35.36H33.7264V36.488H32.6224ZM37.9778 44.12C37.4178 44.12 36.9178 43.984 36.4778 43.712C36.0458 43.432 35.7018 43.052 35.4458 42.572C35.1978 42.084 35.0738 41.532 35.0738 40.916C35.0738 40.3 35.1978 39.756 35.4458 39.284C35.7018 38.812 36.0458 38.44 36.4778 38.168C36.9178 37.896 37.4138 37.76 37.9658 37.76C38.4218 37.76 38.8298 37.848 39.1898 38.024C39.5578 38.2 39.8578 38.452 40.0898 38.78C40.3298 39.1 40.4818 39.476 40.5458 39.908H39.6578C39.5778 39.516 39.3938 39.196 39.1058 38.948C38.8178 38.7 38.4458 38.576 37.9898 38.576C37.5978 38.576 37.2578 38.672 36.9698 38.864C36.6818 39.056 36.4578 39.328 36.2978 39.68C36.1378 40.032 36.0578 40.444 36.0578 40.916C36.0578 41.388 36.1378 41.804 36.2978 42.164C36.4578 42.524 36.6818 42.804 36.9698 43.004C37.2658 43.204 37.6098 43.304 38.0018 43.304C38.4418 43.304 38.8098 43.184 39.1058 42.944C39.4018 42.696 39.5898 42.376 39.6698 41.984H40.5578C40.4858 42.408 40.3258 42.784 40.0778 43.112C39.8378 43.432 39.5378 43.68 39.1778 43.856C38.8178 44.032 38.4178 44.12 37.9778 44.12ZM41.9522 44V35.12H42.9122V44H41.9522ZM45.9482 44L42.6962 40.82L45.8282 37.88H47.1482L43.6322 41.096L43.6922 40.532L47.2682 44H45.9482ZM50.5188 44.12C49.9348 44.12 49.4188 43.984 48.9708 43.712C48.5228 43.432 48.1708 43.052 47.9148 42.572C47.6588 42.092 47.5308 41.54 47.5308 40.916C47.5308 40.292 47.6548 39.744 47.9028 39.272C48.1588 38.792 48.5148 38.42 48.9708 38.156C49.4268 37.892 49.9508 37.76 50.5428 37.76C51.1108 37.76 51.6028 37.884 52.0188 38.132C52.4428 38.38 52.7668 38.728 52.9908 39.176C53.2228 39.624 53.3388 40.152 53.3388 40.76C53.3388 40.84 53.3348 40.916 53.3268 40.988C53.3268 41.06 53.3188 41.14 53.3028 41.228H48.2508V40.424H52.7148L52.4028 40.868C52.4028 40.132 52.2388 39.568 51.9108 39.176C51.5908 38.776 51.1348 38.576 50.5428 38.576C49.9348 38.576 49.4428 38.788 49.0668 39.212C48.6988 39.628 48.5148 40.192 48.5148 40.904C48.5148 41.632 48.6988 42.216 49.0668 42.656C49.4428 43.088 49.9428 43.304 50.5668 43.304C50.9588 43.304 51.3028 43.22 51.5988 43.052C51.8948 42.876 52.1108 42.628 52.2468 42.308H53.1588C52.9588 42.868 52.6228 43.312 52.1508 43.64C51.6868 43.96 51.1428 44.12 50.5188 44.12ZM57.1619 44.108C56.4819 44.108 55.9859 43.956 55.6739 43.652C55.3699 43.34 55.2179 42.892 55.2179 42.308V36.452L56.1779 36.092V42.296C56.1779 42.64 56.2659 42.892 56.4419 43.052C56.6179 43.212 56.9059 43.292 57.3059 43.292C57.4659 43.292 57.6019 43.284 57.7139 43.268C57.8339 43.244 57.9299 43.216 58.0019 43.184V44C57.9219 44.032 57.8059 44.056 57.6539 44.072C57.5099 44.096 57.3459 44.108 57.1619 44.108ZM53.9579 38.696V37.88H58.0019V38.696H53.9579ZM64.0877 44.108C63.4077 44.108 62.9117 43.956 62.5997 43.652C62.2957 43.34 62.1437 42.892 62.1437 42.308V36.452L63.1037 36.092V42.296C63.1037 42.64 63.1917 42.892 63.3677 43.052C63.5437 43.212 63.8317 43.292 64.2317 43.292C64.3917 43.292 64.5277 43.284 64.6397 43.268C64.7597 43.244 64.8557 43.216 64.9277 43.184V44C64.8477 44.032 64.7317 44.056 64.5797 44.072C64.4357 44.096 64.2717 44.108 64.0877 44.108ZM60.8837 38.696V37.88H64.9277V38.696H60.8837ZM68.5665 44.12C67.9665 44.12 67.4385 43.98 66.9825 43.7C66.5265 43.42 66.1705 43.04 65.9145 42.56C65.6665 42.072 65.5425 41.524 65.5425 40.916C65.5425 40.3 65.6705 39.756 65.9265 39.284C66.1825 38.812 66.5345 38.44 66.9825 38.168C67.4385 37.896 67.9665 37.76 68.5665 37.76C69.1745 37.76 69.7025 37.896 70.1505 38.168C70.6065 38.44 70.9585 38.812 71.2065 39.284C71.4625 39.756 71.5905 40.3 71.5905 40.916C71.5905 41.524 71.4625 42.072 71.2065 42.56C70.9585 43.04 70.6065 43.42 70.1505 43.7C69.7025 43.98 69.1745 44.12 68.5665 44.12ZM68.5665 43.304C68.9825 43.304 69.3425 43.204 69.6465 43.004C69.9505 42.796 70.1865 42.512 70.3545 42.152C70.5225 41.792 70.6065 41.376 70.6065 40.904C70.6065 40.2 70.4185 39.636 70.0425 39.212C69.6745 38.788 69.1825 38.576 68.5665 38.576C67.9585 38.576 67.4665 38.788 67.0905 39.212C66.7145 39.636 66.5265 40.2 66.5265 40.904C66.5265 41.376 66.6105 41.792 66.7785 42.152C66.9465 42.512 67.1825 42.796 67.4865 43.004C67.7985 43.204 68.1585 43.304 68.5665 43.304ZM79.1887 44C79.1567 43.864 79.1327 43.708 79.1167 43.532C79.1087 43.356 79.1047 43.132 79.1047 42.86H79.0447V39.932C79.0447 39.468 78.9367 39.128 78.7207 38.912C78.5127 38.688 78.1727 38.576 77.7007 38.576C77.2367 38.576 76.8647 38.672 76.5847 38.864C76.3127 39.048 76.1607 39.312 76.1287 39.656H75.2047C75.2447 39.064 75.4927 38.6 75.9487 38.264C76.4047 37.928 77.0007 37.76 77.7367 37.76C78.4967 37.76 79.0607 37.94 79.4287 38.3C79.7967 38.66 79.9807 39.2 79.9807 39.92V42.86C79.9807 43.036 79.9927 43.22 80.0167 43.412C80.0407 43.596 80.0727 43.792 80.1127 44H79.1887ZM77.0887 44.12C76.4567 44.12 75.9527 43.968 75.5767 43.664C75.2087 43.352 75.0247 42.928 75.0247 42.392C75.0247 41.856 75.2087 41.44 75.5767 41.144C75.9447 40.848 76.4807 40.64 77.1847 40.52L79.3207 40.16V40.952L77.3287 41.264C76.8807 41.336 76.5407 41.456 76.3087 41.624C76.0767 41.792 75.9607 42.036 75.9607 42.356C75.9607 42.668 76.0647 42.904 76.2727 43.064C76.4887 43.224 76.8047 43.304 77.2207 43.304C77.7567 43.304 78.1927 43.184 78.5287 42.944C78.8727 42.696 79.0447 42.376 79.0447 41.984L79.2007 42.836C79.0727 43.244 78.8207 43.56 78.4447 43.784C78.0767 44.008 77.6247 44.12 77.0887 44.12ZM81.8311 44V37.88H82.7311V39.32H82.7911V44H81.8311ZM86.2111 44V39.992C86.2111 39.528 86.0951 39.18 85.8631 38.948C85.6311 38.716 85.2871 38.6 84.8311 38.6C84.4311 38.6 84.0751 38.688 83.7631 38.864C83.4591 39.04 83.2191 39.284 83.0431 39.596C82.8751 39.908 82.7911 40.272 82.7911 40.688L82.6351 39.236C82.8431 38.78 83.1591 38.42 83.5831 38.156C84.0151 37.892 84.5031 37.76 85.0471 37.76C85.6871 37.76 86.1991 37.944 86.5831 38.312C86.9751 38.672 87.1711 39.148 87.1711 39.74V44H86.2111ZM93.409 44.12C93.009 44.12 92.653 44.04 92.341 43.88C92.029 43.712 91.785 43.48 91.609 43.184C91.433 42.88 91.345 42.532 91.345 42.14V37.88H92.305V41.888C92.305 42.352 92.417 42.7 92.641 42.932C92.873 43.164 93.201 43.28 93.625 43.28C94.009 43.28 94.349 43.192 94.645 43.016C94.941 42.84 95.173 42.596 95.341 42.284C95.517 41.964 95.605 41.6 95.605 41.192L95.761 42.644C95.561 43.1 95.249 43.46 94.825 43.724C94.401 43.988 93.929 44.12 93.409 44.12ZM95.665 44V42.56H95.605V37.88H96.565V44H95.665ZM98.4834 44V37.88H99.3834V39.32H99.4434V44H98.4834ZM102.863 44V39.992C102.863 39.528 102.747 39.18 102.515 38.948C102.283 38.716 101.939 38.6 101.483 38.6C101.083 38.6 100.727 38.688 100.415 38.864C100.111 39.04 99.8714 39.284 99.6954 39.596C99.5274 39.908 99.4434 40.272 99.4434 40.688L99.2874 39.236C99.4954 38.78 99.8114 38.42 100.235 38.156C100.667 37.892 101.155 37.76 101.699 37.76C102.339 37.76 102.851 37.944 103.235 38.312C103.627 38.672 103.823 39.148 103.823 39.74V44H102.863ZM106.007 44V37.016C106.007 36.456 106.167 36.02 106.487 35.708C106.815 35.396 107.311 35.24 107.975 35.24C108.135 35.24 108.259 35.248 108.347 35.264C108.443 35.28 108.523 35.3 108.587 35.324V36.08C108.531 36.064 108.451 36.048 108.347 36.032C108.251 36.016 108.147 36.008 108.035 36.008C107.667 36.008 107.395 36.1 107.219 36.284C107.051 36.468 106.967 36.728 106.967 37.064V44H106.007ZM104.747 38.696V37.88H108.455V38.696H104.747ZM112.055 44.12C111.455 44.12 110.927 43.98 110.471 43.7C110.015 43.42 109.659 43.04 109.403 42.56C109.155 42.072 109.031 41.524 109.031 40.916C109.031 40.3 109.159 39.756 109.415 39.284C109.671 38.812 110.023 38.44 110.471 38.168C110.927 37.896 111.455 37.76 112.055 37.76C112.663 37.76 113.191 37.896 113.639 38.168C114.095 38.44 114.447 38.812 114.695 39.284C114.951 39.756 115.079 40.3 115.079 40.916C115.079 41.524 114.951 42.072 114.695 42.56C114.447 43.04 114.095 43.42 113.639 43.7C113.191 43.98 112.663 44.12 112.055 44.12ZM112.055 43.304C112.471 43.304 112.831 43.204 113.135 43.004C113.439 42.796 113.675 42.512 113.843 42.152C114.011 41.792 114.095 41.376 114.095 40.904C114.095 40.2 113.907 39.636 113.531 39.212C113.163 38.788 112.671 38.576 112.055 38.576C111.447 38.576 110.955 38.788 110.579 39.212C110.203 39.636 110.015 40.2 110.015 40.904C110.015 41.376 110.099 41.792 110.267 42.152C110.435 42.512 110.671 42.796 110.975 43.004C111.287 43.204 111.647 43.304 112.055 43.304ZM116.519 44V37.88H117.419V39.44H117.479V44H116.519ZM117.479 40.808L117.323 39.356C117.467 38.836 117.723 38.44 118.091 38.168C118.459 37.896 118.883 37.76 119.363 37.76C119.563 37.76 119.699 37.776 119.771 37.808V38.732C119.731 38.716 119.675 38.708 119.603 38.708C119.531 38.7 119.443 38.696 119.339 38.696C118.731 38.696 118.267 38.88 117.947 39.248C117.635 39.608 117.479 40.128 117.479 40.808ZM123.255 46.58C122.527 46.58 121.919 46.408 121.431 46.064C120.951 45.728 120.659 45.28 120.555 44.72H121.467C121.555 45.04 121.751 45.292 122.055 45.476C122.367 45.668 122.787 45.764 123.315 45.764C123.939 45.764 124.411 45.592 124.731 45.248C125.051 44.912 125.211 44.416 125.211 43.76V42.452L125.331 42.476C125.195 42.94 124.923 43.312 124.515 43.592C124.107 43.864 123.623 44 123.063 44C122.527 44 122.055 43.872 121.647 43.616C121.239 43.352 120.923 42.988 120.699 42.524C120.475 42.06 120.363 41.52 120.363 40.904C120.363 40.28 120.479 39.732 120.711 39.26C120.943 38.788 121.267 38.424 121.683 38.168C122.107 37.904 122.599 37.772 123.159 37.772C123.735 37.772 124.215 37.912 124.599 38.192C124.991 38.472 125.251 38.872 125.379 39.392L125.271 39.404V37.88H126.171V43.76C126.171 44.632 125.911 45.32 125.391 45.824C124.871 46.328 124.159 46.58 123.255 46.58ZM123.303 43.172C123.903 43.172 124.379 42.964 124.731 42.548C125.083 42.132 125.259 41.568 125.259 40.856C125.259 40.16 125.083 39.612 124.731 39.212C124.379 38.804 123.903 38.6 123.303 38.6C122.695 38.6 122.215 38.804 121.863 39.212C121.519 39.62 121.347 40.18 121.347 40.892C121.347 41.588 121.523 42.144 121.875 42.56C122.227 42.968 122.703 43.172 123.303 43.172ZM130.605 44.12C130.021 44.12 129.505 43.984 129.057 43.712C128.609 43.432 128.257 43.052 128.001 42.572C127.745 42.092 127.617 41.54 127.617 40.916C127.617 40.292 127.741 39.744 127.989 39.272C128.245 38.792 128.601 38.42 129.057 38.156C129.513 37.892 130.037 37.76 130.629 37.76C131.197 37.76 131.689 37.884 132.105 38.132C132.529 38.38 132.853 38.728 133.077 39.176C133.309 39.624 133.425 40.152 133.425 40.76C133.425 40.84 133.421 40.916 133.413 40.988C133.413 41.06 133.405 41.14 133.389 41.228H128.337V40.424H132.801L132.489 40.868C132.489 40.132 132.325 39.568 131.997 39.176C131.677 38.776 131.221 38.576 130.629 38.576C130.021 38.576 129.529 38.788 129.153 39.212C128.785 39.628 128.601 40.192 128.601 40.904C128.601 41.632 128.785 42.216 129.153 42.656C129.529 43.088 130.029 43.304 130.653 43.304C131.045 43.304 131.389 43.22 131.685 43.052C131.981 42.876 132.197 42.628 132.333 42.308H133.245C133.045 42.868 132.709 43.312 132.237 43.64C131.773 43.96 131.229 44.12 130.605 44.12ZM137.248 44.108C136.568 44.108 136.072 43.956 135.76 43.652C135.456 43.34 135.304 42.892 135.304 42.308V36.452L136.264 36.092V42.296C136.264 42.64 136.352 42.892 136.528 43.052C136.704 43.212 136.992 43.292 137.392 43.292C137.552 43.292 137.688 43.284 137.8 43.268C137.92 43.244 138.016 43.216 138.088 43.184V44C138.008 44.032 137.892 44.056 137.74 44.072C137.596 44.096 137.432 44.108 137.248 44.108ZM134.044 38.696V37.88H138.088V38.696H134.044ZM141.982 44.108C141.302 44.108 140.806 43.956 140.494 43.652C140.19 43.34 140.038 42.892 140.038 42.308V36.452L140.998 36.092V42.296C140.998 42.64 141.086 42.892 141.262 43.052C141.438 43.212 141.726 43.292 142.126 43.292C142.286 43.292 142.422 43.284 142.534 43.268C142.654 43.244 142.75 43.216 142.822 43.184V44C142.742 44.032 142.626 44.056 142.474 44.072C142.33 44.096 142.166 44.108 141.982 44.108ZM138.778 38.696V37.88H142.822V38.696H138.778ZM147.814 44C147.782 43.864 147.758 43.708 147.742 43.532C147.734 43.356 147.73 43.132 147.73 42.86H147.67V39.932C147.67 39.468 147.562 39.128 147.346 38.912C147.138 38.688 146.798 38.576 146.326 38.576C145.862 38.576 145.49 38.672 145.21 38.864C144.938 39.048 144.786 39.312 144.754 39.656H143.83C143.87 39.064 144.118 38.6 144.574 38.264C145.03 37.928 145.626 37.76 146.362 37.76C147.122 37.76 147.686 37.94 148.054 38.3C148.422 38.66 148.606 39.2 148.606 39.92V42.86C148.606 43.036 148.618 43.22 148.642 43.412C148.666 43.596 148.698 43.792 148.738 44H147.814ZM145.714 44.12C145.082 44.12 144.578 43.968 144.202 43.664C143.834 43.352 143.65 42.928 143.65 42.392C143.65 41.856 143.834 41.44 144.202 41.144C144.57 40.848 145.106 40.64 145.81 40.52L147.946 40.16V40.952L145.954 41.264C145.506 41.336 145.166 41.456 144.934 41.624C144.702 41.792 144.586 42.036 144.586 42.356C144.586 42.668 144.69 42.904 144.898 43.064C145.114 43.224 145.43 43.304 145.846 43.304C146.382 43.304 146.818 43.184 147.154 42.944C147.498 42.696 147.67 42.376 147.67 41.984L147.826 42.836C147.698 43.244 147.446 43.56 147.07 43.784C146.702 44.008 146.25 44.12 145.714 44.12ZM153.48 44.108C152.904 44.108 152.42 43.968 152.028 43.688C151.636 43.408 151.368 43.012 151.224 42.5L151.356 42.476V44H150.456V35.36H151.416V39.308L151.284 39.272C151.436 38.8 151.712 38.432 152.112 38.168C152.52 37.896 153.004 37.76 153.564 37.76C154.108 37.76 154.58 37.892 154.98 38.156C155.388 38.42 155.704 38.788 155.928 39.26C156.152 39.732 156.264 40.284 156.264 40.916C156.264 41.556 156.148 42.116 155.916 42.596C155.684 43.076 155.36 43.448 154.944 43.712C154.528 43.976 154.04 44.108 153.48 44.108ZM153.336 43.268C153.944 43.268 154.42 43.06 154.764 42.644C155.108 42.22 155.28 41.644 155.28 40.916C155.28 40.196 155.108 39.632 154.764 39.224C154.42 38.808 153.944 38.6 153.336 38.6C152.728 38.6 152.248 38.812 151.896 39.236C151.544 39.652 151.368 40.224 151.368 40.952C151.368 41.664 151.544 42.228 151.896 42.644C152.248 43.06 152.728 43.268 153.336 43.268ZM157.733 44V35.36H158.693V44H157.733ZM163.124 44.12C162.54 44.12 162.024 43.984 161.576 43.712C161.128 43.432 160.776 43.052 160.52 42.572C160.264 42.092 160.136 41.54 160.136 40.916C160.136 40.292 160.26 39.744 160.508 39.272C160.764 38.792 161.12 38.42 161.576 38.156C162.032 37.892 162.556 37.76 163.148 37.76C163.716 37.76 164.208 37.884 164.624 38.132C165.048 38.38 165.372 38.728 165.596 39.176C165.828 39.624 165.944 40.152 165.944 40.76C165.944 40.84 165.94 40.916 165.932 40.988C165.932 41.06 165.924 41.14 165.908 41.228H160.856V40.424H165.32L165.008 40.868C165.008 40.132 164.844 39.568 164.516 39.176C164.196 38.776 163.74 38.576 163.148 38.576C162.54 38.576 162.048 38.788 161.672 39.212C161.304 39.628 161.12 40.192 161.12 40.904C161.12 41.632 161.304 42.216 161.672 42.656C162.048 43.088 162.548 43.304 163.172 43.304C163.564 43.304 163.908 43.22 164.204 43.052C164.5 42.876 164.716 42.628 164.852 42.308H165.764C165.564 42.868 165.228 43.312 164.756 43.64C164.292 43.96 163.748 44.12 163.124 44.12ZM172.3 44.12C171.716 44.12 171.2 43.984 170.752 43.712C170.304 43.432 169.952 43.052 169.696 42.572C169.44 42.092 169.312 41.54 169.312 40.916C169.312 40.292 169.436 39.744 169.684 39.272C169.94 38.792 170.296 38.42 170.752 38.156C171.208 37.892 171.732 37.76 172.324 37.76C172.892 37.76 173.384 37.884 173.8 38.132C174.224 38.38 174.548 38.728 174.772 39.176C175.004 39.624 175.12 40.152 175.12 40.76C175.12 40.84 175.116 40.916 175.108 40.988C175.108 41.06 175.1 41.14 175.084 41.228H170.032V40.424H174.496L174.184 40.868C174.184 40.132 174.02 39.568 173.692 39.176C173.372 38.776 172.916 38.576 172.324 38.576C171.716 38.576 171.224 38.788 170.848 39.212C170.48 39.628 170.296 40.192 170.296 40.904C170.296 41.632 170.48 42.216 170.848 42.656C171.224 43.088 171.724 43.304 172.348 43.304C172.74 43.304 173.084 43.22 173.38 43.052C173.676 42.876 173.892 42.628 174.028 42.308H174.94C174.74 42.868 174.404 43.312 173.932 43.64C173.468 43.96 172.924 44.12 172.3 44.12ZM178.213 44L175.681 37.88H176.713L178.825 43.352H178.441L180.541 37.88H181.525L178.993 44H178.213ZM185.062 44.12C184.478 44.12 183.962 43.984 183.514 43.712C183.066 43.432 182.714 43.052 182.458 42.572C182.202 42.092 182.074 41.54 182.074 40.916C182.074 40.292 182.198 39.744 182.446 39.272C182.702 38.792 183.058 38.42 183.514 38.156C183.97 37.892 184.494 37.76 185.086 37.76C185.654 37.76 186.146 37.884 186.562 38.132C186.986 38.38 187.31 38.728 187.534 39.176C187.766 39.624 187.882 40.152 187.882 40.76C187.882 40.84 187.878 40.916 187.87 40.988C187.87 41.06 187.862 41.14 187.846 41.228H182.794V40.424H187.258L186.946 40.868C186.946 40.132 186.782 39.568 186.454 39.176C186.134 38.776 185.678 38.576 185.086 38.576C184.478 38.576 183.986 38.788 183.61 39.212C183.242 39.628 183.058 40.192 183.058 40.904C183.058 41.632 183.242 42.216 183.61 42.656C183.986 43.088 184.486 43.304 185.11 43.304C185.502 43.304 185.846 43.22 186.142 43.052C186.438 42.876 186.654 42.628 186.79 42.308H187.702C187.502 42.868 187.166 43.312 186.694 43.64C186.23 43.96 185.686 44.12 185.062 44.12ZM189.327 44V37.88H190.227V39.32H190.287V44H189.327ZM193.707 44V39.992C193.707 39.528 193.591 39.18 193.359 38.948C193.127 38.716 192.783 38.6 192.327 38.6C191.927 38.6 191.571 38.688 191.259 38.864C190.955 39.04 190.715 39.284 190.539 39.596C190.371 39.908 190.287 40.272 190.287 40.688L190.131 39.236C190.339 38.78 190.655 38.42 191.079 38.156C191.511 37.892 191.999 37.76 192.543 37.76C193.183 37.76 193.695 37.944 194.079 38.312C194.471 38.672 194.667 39.148 194.667 39.74V44H193.707ZM196.511 44V37.88H197.471V44H196.511ZM196.439 36.488V35.36H197.543V36.488H196.439ZM199.394 44V37.88H200.294V39.32H200.354V44H199.394ZM203.774 44V39.992C203.774 39.528 203.658 39.18 203.426 38.948C203.194 38.716 202.85 38.6 202.394 38.6C201.994 38.6 201.638 38.688 201.326 38.864C201.022 39.04 200.782 39.284 200.606 39.596C200.438 39.908 200.354 40.272 200.354 40.688L200.198 39.236C200.406 38.78 200.722 38.42 201.146 38.156C201.578 37.892 202.066 37.76 202.61 37.76C203.25 37.76 203.762 37.944 204.146 38.312C204.538 38.672 204.734 39.148 204.734 39.74V44H203.774ZM209.013 46.58C208.285 46.58 207.677 46.408 207.189 46.064C206.709 45.728 206.417 45.28 206.313 44.72H207.225C207.313 45.04 207.509 45.292 207.813 45.476C208.125 45.668 208.545 45.764 209.073 45.764C209.697 45.764 210.169 45.592 210.489 45.248C210.809 44.912 210.969 44.416 210.969 43.76V42.452L211.089 42.476C210.953 42.94 210.681 43.312 210.273 43.592C209.865 43.864 209.381 44 208.821 44C208.285 44 207.813 43.872 207.405 43.616C206.997 43.352 206.681 42.988 206.457 42.524C206.233 42.06 206.121 41.52 206.121 40.904C206.121 40.28 206.237 39.732 206.469 39.26C206.701 38.788 207.025 38.424 207.441 38.168C207.865 37.904 208.357 37.772 208.917 37.772C209.493 37.772 209.973 37.912 210.357 38.192C210.749 38.472 211.009 38.872 211.137 39.392L211.029 39.404V37.88H211.929V43.76C211.929 44.632 211.669 45.32 211.149 45.824C210.629 46.328 209.917 46.58 209.013 46.58ZM209.061 43.172C209.661 43.172 210.137 42.964 210.489 42.548C210.841 42.132 211.017 41.568 211.017 40.856C211.017 40.16 210.841 39.612 210.489 39.212C210.137 38.804 209.661 38.6 209.061 38.6C208.453 38.6 207.973 38.804 207.621 39.212C207.277 39.62 207.105 40.18 207.105 40.892C207.105 41.588 207.281 42.144 207.633 42.56C207.985 42.968 208.461 43.172 209.061 43.172Z" fill="white"/>
</svg>
